<svg width="42" height="42" viewBox="0 0 42 42" fill="none" xmlns="http://www.w3.org/2000/svg">
<circle cx="20.9962" cy="21.0001" r="20.1802" fill="#0C0C0C" stroke="url(#paint0_linear_2_3084)" stroke-width="1.31945"/>
<path d="M28.5633 28.5633L25.202 25.202M26.8826 20.1601C26.8826 21.943 26.1744 23.6529 24.9136 24.9136C23.6529 26.1744 21.943 26.8826 20.1601 26.8826C18.3771 26.8826 16.6672 26.1744 15.4065 24.9136C14.1458 23.6529 13.4375 21.943 13.4375 20.1601C13.4375 18.3771 14.1458 16.6672 15.4065 15.4065C16.6672 14.1458 18.3771 13.4375 20.1601 13.4375C21.943 13.4375 23.6529 14.1458 24.9136 15.4065C26.1744 16.6672 26.8826 18.3771 26.8826 20.1601Z" stroke="white" stroke-width="1.25001" stroke-miterlimit="10" stroke-linecap="round" stroke-linejoin="round"/>
<defs>
<linearGradient id="paint0_linear_2_3084" x1="0.15625" y1="21.0001" x2="41.8362" y2="21.0001" gradientUnits="userSpaceOnUse">
<stop stop-color="#A5EC5E"/>
<stop offset="1" stop-color="#BDC502"/>
</linearGradient>
</defs>
</svg>
