<svg width="278" height="31" viewBox="0 0 278 31" fill="none" xmlns="http://www.w3.org/2000/svg">
<path d="M24.94 22.14C23.3 22.14 21.9533 21.7533 20.9 20.98C19.8467 20.1933 19.28 19.0733 19.2 17.62H23.38C23.42 18.1133 23.5667 18.4733 23.82 18.7C24.0733 18.9267 24.4 19.04 24.8 19.04C25.16 19.04 25.4533 18.9533 25.68 18.78C25.92 18.5933 26.04 18.34 26.04 18.02C26.04 17.6067 25.8467 17.2867 25.46 17.06C25.0733 16.8333 24.4467 16.58 23.58 16.3C22.66 15.9933 21.9133 15.7 21.34 15.42C20.78 15.1267 20.2867 14.7067 19.86 14.16C19.4467 13.6 19.24 12.8733 19.24 11.98C19.24 11.0733 19.4667 10.3 19.92 9.66C20.3733 9.00667 21 8.51333 21.8 8.18C22.6 7.84667 23.5067 7.68 24.52 7.68C26.16 7.68 27.4667 8.06667 28.44 8.84C29.4267 9.6 29.9533 10.6733 30.02 12.06H25.76C25.7467 11.6333 25.6133 11.3133 25.36 11.1C25.12 10.8867 24.8067 10.78 24.42 10.78C24.1267 10.78 23.8867 10.8667 23.7 11.04C23.5133 11.2133 23.42 11.46 23.42 11.78C23.42 12.0467 23.52 12.28 23.72 12.48C23.9333 12.6667 24.1933 12.8333 24.5 12.98C24.8067 13.1133 25.26 13.2867 25.86 13.5C26.7533 13.8067 27.4867 14.1133 28.06 14.42C28.6467 14.7133 29.1467 15.1333 29.56 15.68C29.9867 16.2133 30.2 16.8933 30.2 17.72C30.2 18.56 29.9867 19.3133 29.56 19.98C29.1467 20.6467 28.54 21.1733 27.74 21.56C26.9533 21.9467 26.02 22.14 24.94 22.14ZM35.8623 7.9V16.08C35.8623 16.84 36.0357 17.4267 36.3823 17.84C36.7423 18.2533 37.2823 18.46 38.0023 18.46C38.7223 18.46 39.2623 18.2533 39.6223 17.84C39.9957 17.4133 40.1823 16.8267 40.1823 16.08V7.9H44.1023V16.08C44.1023 17.3733 43.829 18.48 43.2823 19.4C42.7357 20.3067 41.989 20.9933 41.0423 21.46C40.109 21.9133 39.069 22.14 37.9223 22.14C36.7757 22.14 35.749 21.9133 34.8423 21.46C33.949 20.9933 33.2423 20.3067 32.7223 19.4C32.2157 18.4933 31.9623 17.3867 31.9623 16.08V7.9H35.8623ZM45.7806 14.92C45.7806 13.5333 46.0673 12.3 46.6406 11.22C47.2273 10.1267 48.054 9.28 49.1206 8.68C50.1873 8.06667 51.414 7.76 52.8006 7.76C54.5606 7.76 56.0406 8.23333 57.2406 9.18C58.4406 10.1133 59.214 11.3867 59.5606 13H55.3406C55.0873 12.4667 54.734 12.06 54.2806 11.78C53.8406 11.5 53.3273 11.36 52.7406 11.36C51.834 11.36 51.1073 11.6867 50.5606 12.34C50.0273 12.98 49.7606 13.84 49.7606 14.92C49.7606 16.0133 50.0273 16.8867 50.5606 17.54C51.1073 18.18 51.834 18.5 52.7406 18.5C53.3273 18.5 53.8406 18.36 54.2806 18.08C54.734 17.8 55.0873 17.3933 55.3406 16.86H59.5606C59.214 18.4733 58.4406 19.7533 57.2406 20.7C56.0406 21.6333 54.5606 22.1 52.8006 22.1C51.414 22.1 50.1873 21.8 49.1206 21.2C48.054 20.5867 47.2273 19.74 46.6406 18.66C46.0673 17.5667 45.7806 16.32 45.7806 14.92ZM60.9369 14.92C60.9369 13.5333 61.2235 12.3 61.7969 11.22C62.3835 10.1267 63.2102 9.28 64.2769 8.68C65.3435 8.06667 66.5702 7.76 67.9569 7.76C69.7169 7.76 71.1969 8.23333 72.3969 9.18C73.5969 10.1133 74.3702 11.3867 74.7169 13H70.4969C70.2435 12.4667 69.8902 12.06 69.4369 11.78C68.9969 11.5 68.4835 11.36 67.8969 11.36C66.9902 11.36 66.2635 11.6867 65.7169 12.34C65.1835 12.98 64.9169 13.84 64.9169 14.92C64.9169 16.0133 65.1835 16.8867 65.7169 17.54C66.2635 18.18 66.9902 18.5 67.8969 18.5C68.4835 18.5 68.9969 18.36 69.4369 18.08C69.8902 17.8 70.2435 17.3933 70.4969 16.86H74.7169C74.3702 18.4733 73.5969 19.7533 72.3969 20.7C71.1969 21.6333 69.7169 22.1 67.9569 22.1C66.5702 22.1 65.3435 21.8 64.2769 21.2C63.2102 20.5867 62.3835 19.74 61.7969 18.66C61.2235 17.5667 60.9369 16.32 60.9369 14.92ZM80.4931 11.04V13.34H84.9931V16.32H80.4931V18.86H85.5931V22H76.5731V7.9H85.5931V11.04H80.4931ZM92.8502 22.14C91.2102 22.14 89.8635 21.7533 88.8102 20.98C87.7568 20.1933 87.1902 19.0733 87.1102 17.62H91.2902C91.3302 18.1133 91.4768 18.4733 91.7302 18.7C91.9835 18.9267 92.3102 19.04 92.7102 19.04C93.0702 19.04 93.3635 18.9533 93.5902 18.78C93.8302 18.5933 93.9502 18.34 93.9502 18.02C93.9502 17.6067 93.7568 17.2867 93.3702 17.06C92.9835 16.8333 92.3568 16.58 91.4902 16.3C90.5702 15.9933 89.8235 15.7 89.2502 15.42C88.6902 15.1267 88.1968 14.7067 87.7702 14.16C87.3568 13.6 87.1502 12.8733 87.1502 11.98C87.1502 11.0733 87.3768 10.3 87.8302 9.66C88.2835 9.00667 88.9102 8.51333 89.7102 8.18C90.5102 7.84667 91.4168 7.68 92.4302 7.68C94.0702 7.68 95.3768 8.06667 96.3502 8.84C97.3368 9.6 97.8635 10.6733 97.9302 12.06H93.6702C93.6568 11.6333 93.5235 11.3133 93.2702 11.1C93.0302 10.8867 92.7168 10.78 92.3302 10.78C92.0368 10.78 91.7968 10.8667 91.6102 11.04C91.4235 11.2133 91.3302 11.46 91.3302 11.78C91.3302 12.0467 91.4302 12.28 91.6302 12.48C91.8435 12.6667 92.1035 12.8333 92.4102 12.98C92.7168 13.1133 93.1702 13.2867 93.7702 13.5C94.6635 13.8067 95.3968 14.1133 95.9702 14.42C96.5568 14.7133 97.0568 15.1333 97.4702 15.68C97.8968 16.2133 98.1102 16.8933 98.1102 17.72C98.1102 18.56 97.8968 19.3133 97.4702 19.98C97.0568 20.6467 96.4502 21.1733 95.6502 21.56C94.8635 21.9467 93.9302 22.14 92.8502 22.14ZM105.253 22.14C103.613 22.14 102.266 21.7533 101.213 20.98C100.159 20.1933 99.5925 19.0733 99.5125 17.62H103.693C103.733 18.1133 103.879 18.4733 104.133 18.7C104.386 18.9267 104.713 19.04 105.113 19.04C105.473 19.04 105.766 18.9533 105.993 18.78C106.233 18.5933 106.353 18.34 106.353 18.02C106.353 17.6067 106.159 17.2867 105.773 17.06C105.386 16.8333 104.759 16.58 103.893 16.3C102.973 15.9933 102.226 15.7 101.653 15.42C101.093 15.1267 100.599 14.7067 100.173 14.16C99.7592 13.6 99.5525 12.8733 99.5525 11.98C99.5525 11.0733 99.7792 10.3 100.233 9.66C100.686 9.00667 101.313 8.51333 102.113 8.18C102.913 7.84667 103.819 7.68 104.833 7.68C106.473 7.68 107.779 8.06667 108.753 8.84C109.739 9.6 110.266 10.6733 110.333 12.06H106.073C106.059 11.6333 105.926 11.3133 105.673 11.1C105.433 10.8867 105.119 10.78 104.733 10.78C104.439 10.78 104.199 10.8667 104.013 11.04C103.826 11.2133 103.733 11.46 103.733 11.78C103.733 12.0467 103.833 12.28 104.033 12.48C104.246 12.6667 104.506 12.8333 104.813 12.98C105.119 13.1133 105.573 13.2867 106.173 13.5C107.066 13.8067 107.799 14.1133 108.373 14.42C108.959 14.7133 109.459 15.1333 109.873 15.68C110.299 16.2133 110.513 16.8933 110.513 17.72C110.513 18.56 110.299 19.3133 109.873 19.98C109.459 20.6467 108.853 21.1733 108.053 21.56C107.266 21.9467 106.333 22.14 105.253 22.14ZM121.895 7.9V11.02H116.255V13.5H120.415V16.48H116.255V22H112.335V7.9H121.895ZM127.386 7.9V16.08C127.386 16.84 127.559 17.4267 127.906 17.84C128.266 18.2533 128.806 18.46 129.526 18.46C130.246 18.46 130.786 18.2533 131.146 17.84C131.519 17.4133 131.706 16.8267 131.706 16.08V7.9H135.626V16.08C135.626 17.3733 135.352 18.48 134.806 19.4C134.259 20.3067 133.512 20.9933 132.566 21.46C131.632 21.9133 130.592 22.14 129.446 22.14C128.299 22.14 127.272 21.9133 126.366 21.46C125.472 20.9933 124.766 20.3067 124.246 19.4C123.739 18.4933 123.486 17.3867 123.486 16.08V7.9H127.386ZM141.704 19H146.084V22H137.784V7.9H141.704V19ZM150.956 14.92C150.956 13.5333 151.243 12.3 151.816 11.22C152.403 10.1267 153.23 9.28 154.296 8.68C155.363 8.06667 156.59 7.76 157.976 7.76C159.736 7.76 161.216 8.23333 162.416 9.18C163.616 10.1133 164.39 11.3867 164.736 13H160.516C160.263 12.4667 159.91 12.06 159.456 11.78C159.016 11.5 158.503 11.36 157.916 11.36C157.01 11.36 156.283 11.6867 155.736 12.34C155.203 12.98 154.936 13.84 154.936 14.92C154.936 16.0133 155.203 16.8867 155.736 17.54C156.283 18.18 157.01 18.5 157.916 18.5C158.503 18.5 159.016 18.36 159.456 18.08C159.91 17.8 160.263 17.3933 160.516 16.86H164.736C164.39 18.4733 163.616 19.7533 162.416 20.7C161.216 21.6333 159.736 22.1 157.976 22.1C156.59 22.1 155.363 21.8 154.296 21.2C153.23 20.5867 152.403 19.74 151.816 18.66C151.243 17.5667 150.956 16.32 150.956 14.92ZM173.353 22.14C172.033 22.14 170.819 21.8333 169.713 21.22C168.606 20.5933 167.726 19.7333 167.073 18.64C166.433 17.5333 166.113 16.2867 166.113 14.9C166.113 13.5133 166.433 12.2733 167.073 11.18C167.726 10.0733 168.606 9.21333 169.713 8.6C170.819 7.98667 172.033 7.68 173.353 7.68C174.686 7.68 175.899 7.98667 176.993 8.6C178.099 9.21333 178.973 10.0733 179.613 11.18C180.253 12.2733 180.573 13.5133 180.573 14.9C180.573 16.2867 180.253 17.5333 179.613 18.64C178.973 19.7333 178.099 20.5933 176.993 21.22C175.886 21.8333 174.673 22.14 173.353 22.14ZM173.353 18.5C174.353 18.5 175.139 18.1733 175.713 17.52C176.299 16.8667 176.593 15.9933 176.593 14.9C176.593 13.78 176.299 12.9 175.713 12.26C175.139 11.6067 174.353 11.28 173.353 11.28C172.339 11.28 171.546 11.6067 170.973 12.26C170.399 12.9 170.113 13.78 170.113 14.9C170.113 16.0067 170.399 16.8867 170.973 17.54C171.546 18.18 172.339 18.5 173.353 18.5ZM195.395 22H191.475L186.255 14.12V22H182.335V7.9H186.255L191.475 15.88V7.9H195.395V22ZM208.248 7.9V11.02H204.488V22H200.568V11.02H196.848V7.9H208.248ZM216.838 22L214.038 16.8H213.618V22H209.698V7.9H215.878C217.011 7.9 217.971 8.1 218.758 8.5C219.545 8.88667 220.138 9.42667 220.538 10.12C220.938 10.8 221.138 11.5667 221.138 12.42C221.138 13.38 220.871 14.2267 220.338 14.96C219.818 15.68 219.051 16.1933 218.038 16.5L221.218 22H216.838ZM213.618 14.12H215.558C216.091 14.12 216.491 13.9933 216.758 13.74C217.025 13.4867 217.158 13.12 217.158 12.64C217.158 12.1867 217.018 11.8333 216.738 11.58C216.471 11.3133 216.078 11.18 215.558 11.18H213.618V14.12ZM231.841 19.7H226.841L226.081 22H221.961L227.101 7.9H231.621L236.741 22H232.601L231.841 19.7ZM230.861 16.7L229.341 12.14L227.841 16.7H230.861ZM237.538 14.92C237.538 13.5333 237.825 12.3 238.398 11.22C238.985 10.1267 239.812 9.28 240.878 8.68C241.945 8.06667 243.172 7.76 244.558 7.76C246.318 7.76 247.798 8.23333 248.998 9.18C250.198 10.1133 250.972 11.3867 251.318 13H247.098C246.845 12.4667 246.492 12.06 246.038 11.78C245.598 11.5 245.085 11.36 244.498 11.36C243.592 11.36 242.865 11.6867 242.318 12.34C241.785 12.98 241.518 13.84 241.518 14.92C241.518 16.0133 241.785 16.8867 242.318 17.54C242.865 18.18 243.592 18.5 244.498 18.5C245.085 18.5 245.598 18.36 246.038 18.08C246.492 17.8 246.845 17.3933 247.098 16.86H251.318C250.972 18.4733 250.198 19.7533 248.998 20.7C247.798 21.6333 246.318 22.1 244.558 22.1C243.172 22.1 241.945 21.8 240.878 21.2C239.812 20.5867 238.985 19.74 238.398 18.66C237.825 17.5667 237.538 16.32 237.538 14.92ZM263.795 7.9V11.02H260.035V22H256.115V11.02H252.395V7.9H263.795ZM270.565 22.14C268.925 22.14 267.578 21.7533 266.525 20.98C265.472 20.1933 264.905 19.0733 264.825 17.62H269.005C269.045 18.1133 269.192 18.4733 269.445 18.7C269.698 18.9267 270.025 19.04 270.425 19.04C270.785 19.04 271.078 18.9533 271.305 18.78C271.545 18.5933 271.665 18.34 271.665 18.02C271.665 17.6067 271.472 17.2867 271.085 17.06C270.698 16.8333 270.072 16.58 269.205 16.3C268.285 15.9933 267.538 15.7 266.965 15.42C266.405 15.1267 265.912 14.7067 265.485 14.16C265.072 13.6 264.865 12.8733 264.865 11.98C264.865 11.0733 265.092 10.3 265.545 9.66C265.998 9.00667 266.625 8.51333 267.425 8.18C268.225 7.84667 269.132 7.68 270.145 7.68C271.785 7.68 273.092 8.06667 274.065 8.84C275.052 9.6 275.578 10.6733 275.645 12.06H271.385C271.372 11.6333 271.238 11.3133 270.985 11.1C270.745 10.8867 270.432 10.78 270.045 10.78C269.752 10.78 269.512 10.8667 269.325 11.04C269.138 11.2133 269.045 11.46 269.045 11.78C269.045 12.0467 269.145 12.28 269.345 12.48C269.558 12.6667 269.818 12.8333 270.125 12.98C270.432 13.1133 270.885 13.2867 271.485 13.5C272.378 13.8067 273.112 14.1133 273.685 14.42C274.272 14.7133 274.772 15.1333 275.185 15.68C275.612 16.2133 275.825 16.8933 275.825 17.72C275.825 18.56 275.612 19.3133 275.185 19.98C274.772 20.6467 274.165 21.1733 273.365 21.56C272.578 21.9467 271.645 22.14 270.565 22.14Z" fill="black"/>
<rect y="10" width="10.5" height="10.5" rx="2.25" fill="#C0D724"/>
<rect x="178" y="29" width="99" height="2" rx="1" fill="#C0D724"/>
</svg>
